<svg xmlns="http://www.w3.org/2000/svg" width="24" height="24" viewBox="0 0 24 24" fill="none">
  <path d="M19.0706 4.92999C17.4298 3.27849 15.2642 2.2512 12.9472 2.02523C10.6302 1.79926 8.30696 2.38877 6.37799 3.69212C4.44903 4.99548 3.03524 6.931 2.38037 9.165C1.7255 11.399 1.87058 13.7915 2.79061 15.93C2.8865 16.1288 2.91796 16.3525 2.88061 16.57L2.00061 20.8C1.9667 20.9622 1.97363 21.1302 2.02075 21.2891C2.06788 21.4479 2.15374 21.5925 2.27061 21.71C2.36641 21.8051 2.48048 21.8798 2.60594 21.9297C2.7314 21.9795 2.86565 22.0034 3.00061 22H3.20061L7.48061 21.14C7.69814 21.1138 7.91873 21.1449 8.12061 21.23C10.2591 22.15 12.6516 22.2951 14.8856 21.6402C17.1196 20.9854 19.0551 19.5716 20.3585 17.6426C21.6618 15.7136 22.2513 13.3904 22.0254 11.0734C21.7994 8.75635 20.7721 6.59078 19.1206 4.94999L19.0706 4.92999ZM8.00061 13C7.80283 13 7.60949 12.9413 7.44504 12.8315C7.28059 12.7216 7.15241 12.5654 7.07673 12.3827C7.00104 12.2 6.98124 11.9989 7.01982 11.8049C7.05841 11.6109 7.15365 11.4327 7.2935 11.2929C7.43335 11.153 7.61154 11.0578 7.80552 11.0192C7.9995 10.9806 8.20056 11.0004 8.38329 11.0761C8.56602 11.1518 8.72219 11.28 8.83208 11.4444C8.94196 11.6089 9.00061 11.8022 9.00061 12C9.00061 12.2652 8.89525 12.5196 8.70771 12.7071C8.52018 12.8946 8.26582 13 8.00061 13ZM12.0006 13C11.8028 13 11.6095 12.9413 11.445 12.8315C11.2806 12.7216 11.1524 12.5654 11.0767 12.3827C11.001 12.2 10.9812 11.9989 11.0198 11.8049C11.0584 11.6109 11.1536 11.4327 11.2935 11.2929C11.4334 11.153 11.6115 11.0578 11.8055 11.0192C11.9995 10.9806 12.2006 11.0004 12.3833 11.0761C12.566 11.1518 12.7222 11.28 12.8321 11.4444C12.942 11.6089 13.0006 11.8022 13.0006 12C13.0006 12.2652 12.8952 12.5196 12.7077 12.7071C12.5202 12.8946 12.2658 13 12.0006 13ZM16.0006 13C15.8028 13 15.6095 12.9413 15.445 12.8315C15.2806 12.7216 15.1524 12.5654 15.0767 12.3827C15.001 12.2 14.9812 11.9989 15.0198 11.8049C15.0584 11.6109 15.1536 11.4327 15.2935 11.2929C15.4334 11.153 15.6115 11.0578 15.8055 11.0192C15.9995 10.9806 16.2006 11.0004 16.3833 11.0761C16.566 11.1518 16.7222 11.28 16.8321 11.4444C16.942 11.6089 17.0006 11.8022 17.0006 12C17.0006 12.2652 16.8953 12.5196 16.7077 12.7071C16.5202 12.8946 16.2658 13 16.0006 13Z" fill="#397DF6"/>
</svg>