<svg width="24" height="24" viewBox="0 0 24 24" fill="none" xmlns="http://www.w3.org/2000/svg">
<g clip-path="url(#clip0_306_6085)">
<path d="M9.99981 18.9999C9.76615 19.0004 9.53972 18.919 9.35981 18.7699C9.25855 18.686 9.17485 18.5829 9.11349 18.4665C9.05214 18.3502 9.01435 18.2229 9.00227 18.0919C8.99019 17.9609 9.00408 17.8289 9.04312 17.7033C9.08217 17.5777 9.1456 17.461 9.22981 17.3599L13.7098 11.9999L9.38981 6.62994C9.30674 6.52765 9.24471 6.40996 9.20728 6.28362C9.16985 6.15728 9.15775 6.02479 9.17169 5.89376C9.18563 5.76273 9.22533 5.63575 9.2885 5.52011C9.35168 5.40447 9.43708 5.30246 9.53981 5.21994C9.64327 5.1289 9.76444 5.06024 9.8957 5.01825C10.027 4.97626 10.1655 4.96185 10.3026 4.97594C10.4397 4.99002 10.5724 5.03229 10.6924 5.1001C10.8123 5.1679 10.917 5.25977 10.9998 5.36994L15.8298 11.3699C15.9769 11.5489 16.0573 11.7733 16.0573 12.0049C16.0573 12.2366 15.9769 12.461 15.8298 12.6399L10.8298 18.6399C10.7295 18.761 10.6021 18.8566 10.4578 18.9192C10.3136 18.9817 10.1567 19.0094 9.99981 18.9999Z" fill="white"/>
</g>
<defs>
<clipPath id="clip0_306_6085">
<rect width="24" height="24" fill="white"/>
</clipPath>
</defs>
</svg>
