<svg width="24" height="24" viewBox="0 0 24 24" fill="none" xmlns="http://www.w3.org/2000/svg">
<path d="M13.8302 18.9998C13.6808 19.0003 13.5332 18.9673 13.3982 18.9033C13.2632 18.8393 13.1443 18.7458 13.0502 18.6298L8.22016 12.6298C8.07308 12.4509 7.99268 12.2264 7.99268 11.9948C7.99268 11.7632 8.07308 11.5387 8.22016 11.3598L13.2202 5.35979C13.3899 5.15557 13.6338 5.02715 13.8982 5.00277C14.1627 4.97839 14.4259 5.06005 14.6302 5.22979C14.8344 5.39953 14.9628 5.64344 14.9872 5.90786C15.0116 6.17229 14.9299 6.43557 14.7602 6.63979L10.2902 11.9998L14.6102 17.3598C14.7324 17.5066 14.8101 17.6853 14.834 17.8749C14.8579 18.0644 14.827 18.2568 14.7449 18.4294C14.6629 18.6019 14.5331 18.7473 14.371 18.8484C14.2089 18.9495 14.0212 19.002 13.8302 18.9998Z" fill="white"/>
</svg>
