<svg width="24" height="24" viewBox="0 0 24 24" fill="none" xmlns="http://www.w3.org/2000/svg">
<g clip-path="url(#clip0_310_6972)">
<path d="M6.08935 21.06C5.82413 21.06 5.56978 20.9546 5.38224 20.7671C5.1947 20.5796 5.08935 20.3252 5.08935 20.06L4.93935 5.4C4.92731 5.10234 4.97423 4.80525 5.07742 4.52579C5.18061 4.24633 5.33803 3.99004 5.54063 3.77164C5.74323 3.55324 5.98701 3.37705 6.25794 3.25321C6.52888 3.12936 6.82163 3.0603 7.11935 3.05L16.7093 3C17.0075 3.00521 17.3016 3.06909 17.575 3.18801C17.8485 3.30692 18.0958 3.47854 18.3029 3.69305C18.51 3.90756 18.6727 4.16077 18.782 4.43821C18.8912 4.71565 18.9446 5.01189 18.9393 5.31L19.0793 19.97C19.0811 20.1452 19.0367 20.3178 18.9507 20.4705C18.8647 20.6232 18.7401 20.7506 18.5893 20.84C18.4373 20.9278 18.2649 20.974 18.0893 20.974C17.9138 20.974 17.7414 20.9278 17.5893 20.84L11.8893 17.68L6.59935 20.91C6.4427 20.9975 6.26842 21.0488 6.08935 21.06ZM11.8493 15.51C12.0231 15.5103 12.1944 15.5514 12.3493 15.63L17.0593 18.24L16.9393 5.29C16.9393 5.09 16.8093 4.95 16.7293 4.96L7.12935 5.05C7.04935 5.05 6.93935 5.18 6.93935 5.38L7.05935 18.28L11.3393 15.65C11.4948 15.561 11.6702 15.5128 11.8493 15.51Z" fill="white"/>
</g>
<defs>
<clipPath id="clip0_310_6972">
<rect width="24" height="24" fill="white"/>
</clipPath>
</defs>
</svg>
