<svg width="36" height="36" viewBox="0 0 36 36" fill="none" xmlns="http://www.w3.org/2000/svg">
<path d="M6.00671 4.57666C9.19029 1.73032 13.3929 0 18 0C24.9082 0 30.9068 3.89033 33.9243 9.6H18C14.5102 9.6 11.5174 11.7282 10.2487 14.7575L6.00671 4.57666Z" fill="white"/>
<path d="M4.18915 6.45459C1.57405 9.57963 0 13.6058 0 18C0 25.9778 5.1883 32.7425 12.3753 35.1041L19.1214 26.3258C18.7546 26.3748 18.3802 26.4 18 26.4C14.0075 26.4 10.6656 23.6146 9.81142 19.881C9.765 19.8135 9.7248 19.7402 9.69204 19.6615L4.18915 6.45459Z" fill="white"/>
<path d="M14.9158 35.7369C15.9179 35.9097 16.9484 36 18 36C27.9423 36 36 27.9422 36 18C36 15.8915 35.6376 13.8679 34.9716 11.9878C34.9157 11.9958 34.8583 12 34.8 12H23.8788C25.4347 13.5246 26.4 15.6496 26.4 18C26.4 20.2157 25.5423 22.231 24.1404 23.732C24.1311 23.7452 24.1215 23.7583 24.1116 23.7712L14.9158 35.7369Z" fill="white"/>
<path d="M12 18C12 14.6863 14.6863 12 18 12C21.3137 12 24 14.6863 24 18C24 21.3137 21.3137 24 18 24C14.6863 24 12 21.3137 12 18Z" fill="white"/>
</svg>
