<svg width="36" height="36" viewBox="0 0 36 36" fill="none" xmlns="http://www.w3.org/2000/svg">
<circle cx="18" cy="18" r="16" fill="#CC1439" stroke="#0D0D0D" stroke-width="4"/>
<g clip-path="url(#clip0_3800_14392)">
<path d="M19.41 17.9997L23.71 13.7097C23.8983 13.5214 24.0041 13.266 24.0041 12.9997C24.0041 12.7334 23.8983 12.478 23.71 12.2897C23.5217 12.1014 23.2663 11.9956 23 11.9956C22.7337 11.9956 22.4783 12.1014 22.29 12.2897L18 16.5897L13.71 12.2897C13.5217 12.1014 13.2663 11.9956 13 11.9956C12.7337 11.9956 12.4783 12.1014 12.29 12.2897C12.1017 12.478 11.9959 12.7334 11.9959 12.9997C11.9959 13.266 12.1017 13.5214 12.29 13.7097L16.59 17.9997L12.29 22.2897C12.1962 22.3827 12.1218 22.4933 12.0711 22.6151C12.0203 22.737 11.9942 22.8677 11.9942 22.9997C11.9942 23.1317 12.0203 23.2624 12.0711 23.3843C12.1218 23.5061 12.1962 23.6167 12.29 23.7097C12.3829 23.8034 12.4935 23.8778 12.6154 23.9286C12.7373 23.9794 12.868 24.0055 13 24.0055C13.132 24.0055 13.2627 23.9794 13.3845 23.9286C13.5064 23.8778 13.617 23.8034 13.71 23.7097L18 19.4097L22.29 23.7097C22.3829 23.8034 22.4935 23.8778 22.6154 23.9286C22.7373 23.9794 22.868 24.0055 23 24.0055C23.132 24.0055 23.2627 23.9794 23.3845 23.9286C23.5064 23.8778 23.617 23.8034 23.71 23.7097C23.8037 23.6167 23.8781 23.5061 23.9289 23.3843C23.9796 23.2624 24.0058 23.1317 24.0058 22.9997C24.0058 22.8677 23.9796 22.737 23.9289 22.6151C23.8781 22.4933 23.8037 22.3827 23.71 22.2897L19.41 17.9997Z" fill="white"/>
</g>
<defs>
<clipPath id="clip0_3800_14392">
<rect width="24" height="24" fill="white" transform="translate(5.99997 5.99951)"/>
</clipPath>
</defs>
</svg>
