<svg xmlns="http://www.w3.org/2000/svg" width="24" height="24" viewBox="0 0 24 24" fill="none">
  <path d="M5.9996 21C5.82781 20.9995 5.65906 20.9547 5.5096 20.87C5.35514 20.7832 5.22652 20.6569 5.1369 20.504C5.04729 20.3511 4.99991 20.1772 4.9996 20V5.33C4.98608 4.73032 5.20943 4.14946 5.62124 3.71332C6.03304 3.27718 6.60013 3.02089 7.1996 3H16.7996C17.3991 3.02089 17.9662 3.27718 18.378 3.71332C18.7898 4.14946 19.0131 4.73032 18.9996 5.33V20C18.9985 20.1745 18.9518 20.3457 18.8641 20.4966C18.7764 20.6475 18.6507 20.7727 18.4996 20.86C18.3476 20.9478 18.1751 20.994 17.9996 20.994C17.8241 20.994 17.6516 20.9478 17.4996 20.86L11.8296 17.65L6.4996 20.85C6.34916 20.9434 6.17661 20.9951 5.9996 21Z" fill="#397DF6"/>
</svg>