<svg width="24" height="24" viewBox="0 0 24 24" fill="none" xmlns="http://www.w3.org/2000/svg">
<path d="M20.42 10.1802L12.71 2.30019C12.617 2.20646 12.5064 2.13207 12.3846 2.0813C12.2627 2.03053 12.132 2.00439 12 2.00439C11.868 2.00439 11.7373 2.03053 11.6154 2.0813C11.4936 2.13207 11.383 2.20646 11.29 2.30019L3.57999 10.1902C3.39343 10.3783 3.24609 10.6015 3.14652 10.847C3.04695 11.0925 2.99715 11.3553 2.99999 11.6202V20.0002C2.99922 20.5121 3.19477 21.0048 3.54637 21.3769C3.89797 21.749 4.37885 21.972 4.88999 22.0002H19.11C19.6211 21.972 20.102 21.749 20.4536 21.3769C20.8052 21.0048 21.0008 20.5121 21 20.0002V11.6202C21.0008 11.0831 20.7928 10.5668 20.42 10.1802ZM9.99999 20.0002V14.0002H14V20.0002H9.99999ZM19 20.0002H16V13.0002C16 12.735 15.8946 12.4806 15.7071 12.2931C15.5196 12.1055 15.2652 12.0002 15 12.0002H8.99999C8.73478 12.0002 8.48042 12.1055 8.29289 12.2931C8.10535 12.4806 7.99999 12.735 7.99999 13.0002V20.0002H4.99999V11.5802L12 4.43019L19 11.6202V20.0002Z" fill="white"/>
</svg>
