<svg width="128" height="36" viewBox="0 0 796 138" fill="none" xmlns="http://www.w3.org/2000/svg">
<path d="M0.432532 0.599993H20.1925V107H0.432532V0.599993ZM93.2036 24.92C103.438 24.92 111.646 27.9093 117.828 33.888C124.009 39.8667 127.1 48.7333 127.1 60.488V107H108.1V62.92C108.1 55.8267 106.428 50.5067 103.084 46.96C99.7396 43.312 94.9769 41.488 88.7956 41.488C81.8036 41.488 76.2809 43.616 72.2276 47.872C68.1743 52.0267 66.1476 58.056 66.1476 65.96V107H47.1476V25.832H65.2356V36.32C68.3769 32.5707 72.3289 29.7333 77.0916 27.808C81.8543 25.8827 87.2249 24.92 93.2036 24.92ZM189.184 108.064C180.774 108.064 173.224 106.291 166.536 102.744C159.848 99.1973 154.63 94.2827 150.88 88C147.131 81.616 145.256 74.4213 145.256 66.416C145.256 58.4107 147.131 51.2667 150.88 44.984C154.63 38.7013 159.798 33.7867 166.384 30.24C173.072 26.6933 180.672 24.92 189.184 24.92C197.19 24.92 204.182 26.5413 210.16 29.784C216.24 33.0267 220.8 37.688 223.84 43.768L209.248 52.28C206.918 48.5307 203.979 45.744 200.432 43.92C196.987 41.9947 193.187 41.032 189.032 41.032C181.939 41.032 176.062 43.3627 171.4 48.024C166.739 52.584 164.408 58.7147 164.408 66.416C164.408 74.1173 166.688 80.2987 171.248 84.96C175.91 89.52 181.838 91.8 189.032 91.8C193.187 91.8 196.987 90.888 200.432 89.064C203.979 87.1387 206.918 84.3013 209.248 80.552L223.84 89.064C220.699 95.144 216.088 99.856 210.008 103.2C204.03 106.443 197.088 108.064 189.184 108.064ZM290.096 102.592C287.867 104.416 285.131 105.784 281.888 106.696C278.747 107.608 275.403 108.064 271.856 108.064C262.939 108.064 256.048 105.733 251.184 101.072C246.32 96.4107 243.888 89.6213 243.888 80.704V41.64H230.512V26.44H243.888V7.896H262.888V26.44H284.624V41.64H262.888V80.248C262.888 84.2 263.851 87.24 265.776 89.368C267.701 91.3947 270.488 92.408 274.136 92.408C278.392 92.408 281.939 91.2933 284.776 89.064L290.096 102.592ZM336.734 24.92C348.691 24.92 357.811 27.808 364.094 33.584C370.478 39.2587 373.67 47.872 373.67 59.424V107H355.734V97.12C353.403 100.667 350.059 103.403 345.702 105.328C341.446 107.152 336.278 108.064 330.198 108.064C324.118 108.064 318.798 107.051 314.238 105.024C309.678 102.896 306.131 100.008 303.598 96.36C301.166 92.6107 299.95 88.4053 299.95 83.744C299.95 76.448 302.635 70.6213 308.006 66.264C313.478 61.8053 322.04 59.576 333.694 59.576H354.67V58.36C354.67 52.6853 352.947 48.328 349.502 45.288C346.158 42.248 341.142 40.728 334.454 40.728C329.894 40.728 325.384 41.4373 320.926 42.856C316.568 44.2747 312.87 46.2507 309.83 48.784L302.382 34.952C306.638 31.7093 311.755 29.2267 317.734 27.504C323.712 25.7813 330.046 24.92 336.734 24.92ZM334.15 94.232C338.912 94.232 343.118 93.168 346.766 91.04C350.515 88.8107 353.15 85.6693 354.67 81.616V72.192H335.062C324.118 72.192 318.646 75.7893 318.646 82.984C318.646 86.4293 320.014 89.1653 322.75 91.192C325.486 93.2187 329.286 94.232 334.15 94.232ZM479.356 25.832V94.688C479.356 123.264 464.764 137.552 435.58 137.552C427.777 137.552 420.38 136.539 413.388 134.512C406.396 132.587 400.62 129.749 396.06 126L404.572 111.712C408.119 114.651 412.577 116.981 417.948 118.704C423.42 120.528 428.943 121.44 434.516 121.44C443.433 121.44 449.969 119.413 454.124 115.36C458.279 111.307 460.356 105.125 460.356 96.816V92.56C457.113 96.1067 453.161 98.792 448.5 100.616C443.839 102.44 438.721 103.352 433.148 103.352C425.447 103.352 418.455 101.731 412.172 98.488C405.991 95.144 401.076 90.4827 397.428 84.504C393.881 78.5253 392.108 71.6853 392.108 63.984C392.108 56.2827 393.881 49.4933 397.428 43.616C401.076 37.6373 405.991 33.0267 412.172 29.784C418.455 26.5413 425.447 24.92 433.148 24.92C439.025 24.92 444.345 25.8827 449.108 27.808C453.972 29.7333 458.025 32.672 461.268 36.624V25.832H479.356ZM436.036 87.24C443.231 87.24 449.108 85.112 453.668 80.856C458.329 76.4987 460.66 70.8747 460.66 63.984C460.66 57.1947 458.329 51.672 453.668 47.416C449.108 43.16 443.231 41.032 436.036 41.032C428.74 41.032 422.761 43.16 418.1 47.416C413.54 51.672 411.26 57.1947 411.26 63.984C411.26 70.8747 413.54 76.4987 418.1 80.856C422.761 85.112 428.74 87.24 436.036 87.24ZM522.423 37.688C527.895 29.176 537.522 24.92 551.303 24.92V43.008C549.682 42.704 548.212 42.552 546.895 42.552C539.498 42.552 533.722 44.7307 529.567 49.088C525.412 53.344 523.335 59.5253 523.335 67.632V107H504.335V25.832H522.423V37.688ZM597.984 24.92C609.941 24.92 619.061 27.808 625.344 33.584C631.728 39.2587 634.92 47.872 634.92 59.424V107H616.984V97.12C614.653 100.667 611.309 103.403 606.952 105.328C602.696 107.152 597.528 108.064 591.448 108.064C585.368 108.064 580.048 107.051 575.488 105.024C570.928 102.896 567.381 100.008 564.848 96.36C562.416 92.6107 561.2 88.4053 561.2 83.744C561.2 76.448 563.885 70.6213 569.256 66.264C574.728 61.8053 583.29 59.576 594.944 59.576H615.92V58.36C615.92 52.6853 614.197 48.328 610.752 45.288C607.408 42.248 602.392 40.728 595.704 40.728C591.144 40.728 586.634 41.4373 582.176 42.856C577.818 44.2747 574.12 46.2507 571.08 48.784L563.632 34.952C567.888 31.7093 573.005 29.2267 578.984 27.504C584.962 25.7813 591.296 24.92 597.984 24.92ZM595.4 94.232C600.162 94.232 604.368 93.168 608.016 91.04C611.765 88.8107 614.4 85.6693 615.92 81.616V72.192H596.312C585.368 72.192 579.896 75.7893 579.896 82.984C579.896 86.4293 581.264 89.1653 584 91.192C586.736 93.2187 590.536 94.232 595.4 94.232ZM761.752 24.92C771.987 24.92 780.093 27.9093 786.072 33.888C792.051 39.7653 795.04 48.632 795.04 60.488V107H776.04V62.92C776.04 55.8267 774.469 50.5067 771.328 46.96C768.187 43.312 763.677 41.488 757.8 41.488C751.416 41.488 746.299 43.616 742.448 47.872C738.597 52.0267 736.672 58.0053 736.672 65.808V107H717.672V62.92C717.672 55.8267 716.101 50.5067 712.96 46.96C709.819 43.312 705.309 41.488 699.432 41.488C692.947 41.488 687.779 43.5653 683.928 47.72C680.179 51.8747 678.304 57.904 678.304 65.808V107H659.304V25.832H677.392V36.168C680.432 32.52 684.232 29.7333 688.792 27.808C693.352 25.8827 698.419 24.92 703.992 24.92C710.072 24.92 715.443 26.0853 720.104 28.416C724.867 30.6453 728.616 33.9893 731.352 38.448C734.696 34.192 739.003 30.8987 744.272 28.568C749.541 26.136 755.368 24.92 761.752 24.92Z" fill="white"/>
</svg>
