<svg width="330" height="246" viewBox="0 0 330 246" fill="none" xmlns="http://www.w3.org/2000/svg">
<path d="M330 216.181H0V216.346H330V216.181Z" fill="#4C4C4C"/>
<path d="M296.934 226.805H275.075V226.97H296.934V226.805Z" fill="#4C4C4C"/>
<path d="M218.605 228.601H212.87V228.766H218.605V228.601Z" fill="#EBEBEB"/>
<path d="M274.415 220.678H261.749V220.843H274.415V220.678Z" fill="#4C4C4C"/>
<path d="M63.1291 221.787H34.6237V221.952H63.1291V221.787Z" fill="#4C4C4C"/>
<path d="M73.1873 221.787H69.0095V221.952H73.1873V221.787Z" fill="#4C4C4C"/>
<path d="M148.599 224.573H86.7701V224.738H148.599V224.573Z" fill="#4C4C4C"/>
<path d="M156.42 186.732H28.9806C27.9822 186.73 27.0254 186.332 26.32 185.625C25.6147 184.918 25.2186 183.96 25.2186 182.961V3.73728C25.2273 2.74421 25.6272 1.79467 26.3316 1.09492C27.036 0.39516 27.9879 0.00170118 28.9806 0H156.42C157.419 0 158.378 0.397226 159.085 1.10429C159.792 1.81136 160.189 2.77035 160.189 3.77029V182.961C160.189 183.961 159.792 184.92 159.085 185.627C158.378 186.335 157.419 186.732 156.42 186.732V186.732ZM28.9806 0.13206C28.026 0.133809 27.1111 0.514414 26.4367 1.19033C25.7623 1.86625 25.3836 2.78226 25.3836 3.73728V182.961C25.3836 183.917 25.7623 184.833 26.4367 185.508C27.1111 186.184 28.026 186.565 28.9806 186.567H156.42C157.375 186.565 158.291 186.185 158.966 185.509C159.642 184.833 160.022 183.917 160.024 182.961V3.73728C160.022 2.78165 159.642 1.86566 158.966 1.18993C158.291 0.514199 157.375 0.133805 156.42 0.13206H28.9806Z" fill="#4C4C4C"/>
<path d="M299.185 186.732H171.739C170.74 186.73 169.782 186.332 169.076 185.626C168.369 184.919 167.972 183.961 167.97 182.961V3.73728C167.981 2.74361 168.382 1.79408 169.087 1.0945C169.793 0.394929 170.745 0.00168263 171.739 0H299.185C300.176 0.00343651 301.126 0.397663 301.829 1.09723C302.532 1.7968 302.931 2.74535 302.94 3.73728V182.961C302.94 183.959 302.545 184.916 301.841 185.623C301.137 186.33 300.182 186.728 299.185 186.732V186.732ZM171.739 0.13206C170.783 0.133805 169.868 0.514199 169.192 1.18993C168.517 1.86566 168.137 2.78165 168.135 3.73728V182.961C168.137 183.917 168.517 184.833 169.192 185.509C169.868 186.185 170.783 186.565 171.739 186.567H299.185C300.14 186.565 301.055 186.185 301.731 185.509C302.406 184.833 302.787 183.917 302.788 182.961V3.73728C302.787 2.78165 302.406 1.86566 301.731 1.18993C301.055 0.514199 300.14 0.133805 299.185 0.13206H171.739Z" fill="#4C4C4C"/>
<path d="M44.0813 216.181H133.643L133.643 26.8147H44.0813L44.0813 216.181Z" fill="#4C4C4C"/>
<path d="M42.0949 216.181H131.657L131.657 26.8147H42.0949L42.0949 216.181Z" fill="#4C4C4C"/>
<path d="M128.086 212.166V30.8292L45.6721 30.8292L45.6721 212.166H128.086Z" fill="#333333"/>
<path d="M109.105 212.166L88.2222 30.8292H64.647L85.5294 212.166H109.105Z" fill="#4C4C4C"/>
<path d="M47.1769 212.166L47.1769 30.8292H45.6721L45.6721 212.166H47.1769Z" fill="#4C4C4C"/>
<path d="M43.5731 51.9258L130.178 51.9258V46.5378L43.5731 46.5378V51.9258Z" fill="#4C4C4C"/>
<path d="M180.992 216.181V106.308H144.83V216.181H180.992Z" fill="#333333"/>
<path d="M179.005 141.719V109.517H146.817V141.719H179.005Z" fill="#4C4C4C"/>
<path d="M179.005 176.814V144.612H146.817V176.814H179.005Z" fill="#4C4C4C"/>
<path d="M179.005 211.909V179.706H146.817V211.909H179.005Z" fill="#4C4C4C"/>
<path d="M170.036 109.094H155.76C155.756 109.533 155.839 109.969 156.005 110.375C156.171 110.782 156.416 111.151 156.726 111.462C157.037 111.772 157.406 112.018 157.812 112.184C158.219 112.35 158.654 112.433 159.093 112.429H166.67C167.11 112.432 167.547 112.348 167.954 112.183C168.362 112.017 168.733 111.772 169.046 111.462C169.359 111.152 169.607 110.783 169.777 110.377C169.947 109.97 170.035 109.535 170.036 109.094V109.094Z" fill="#E6E6E6"/>
<path d="M170.036 144.189H155.76C155.76 145.074 156.111 145.923 156.736 146.549C157.361 147.175 158.208 147.528 159.093 147.53H166.67C167.11 147.533 167.547 147.448 167.955 147.282C168.363 147.115 168.734 146.869 169.046 146.559C169.359 146.248 169.608 145.879 169.777 145.473C169.947 145.066 170.035 144.63 170.036 144.189V144.189Z" fill="#333333"/>
<path d="M170.036 179.284H155.76C155.76 180.169 156.111 181.018 156.736 181.644C157.361 182.27 158.208 182.623 159.093 182.625H166.67C167.11 182.627 167.547 182.543 167.955 182.376C168.363 182.21 168.734 181.964 169.046 181.654C169.359 181.343 169.608 180.974 169.777 180.567C169.947 180.161 170.035 179.724 170.036 179.284V179.284Z" fill="#333333"/>
<path d="M199.049 216.181V106.308H180.985V216.181H199.049Z" fill="#4C4C4C"/>
<path d="M277.523 213.48H287.549V130.758H277.523V213.48Z" fill="#4C4C4C"/>
<path d="M189.895 216.181H286.163V213.48H189.895V216.181Z" fill="#333333"/>
<path d="M277.523 130.759H188.503V213.48H277.523V130.759Z" fill="#4C4C4C"/>
<path d="M205.92 179.099H260.08C262.637 179.099 265.09 178.082 266.898 176.273C268.706 174.464 269.722 172.01 269.722 169.452C269.722 166.893 268.706 164.44 266.898 162.63C265.09 160.821 262.637 159.805 260.08 159.805H205.92C203.363 159.805 200.91 160.821 199.102 162.63C197.293 164.44 196.277 166.893 196.277 169.452C196.277 172.01 197.293 174.464 199.102 176.273C200.91 178.082 203.363 179.099 205.92 179.099V179.099ZM260.093 160.452C261.274 160.452 262.444 160.685 263.535 161.137C264.627 161.589 265.618 162.252 266.454 163.088C267.289 163.924 267.952 164.916 268.404 166.008C268.856 167.1 269.089 168.27 269.089 169.452C269.089 170.634 268.856 171.804 268.404 172.896C267.952 173.988 267.289 174.98 266.454 175.816C265.618 176.651 264.627 177.314 263.535 177.767C262.444 178.219 261.274 178.452 260.093 178.452H205.92C203.534 178.452 201.246 177.503 199.559 175.816C197.872 174.128 196.924 171.839 196.924 169.452C196.924 167.065 197.872 164.776 199.559 163.088C201.246 161.4 203.534 160.452 205.92 160.452H260.093Z" fill="#333333"/>
<path d="M205.92 203.101H260.08C262.637 203.101 265.09 202.084 266.898 200.275C268.706 198.466 269.722 196.012 269.722 193.454C269.722 190.895 268.706 188.441 266.898 186.632C265.09 184.823 262.637 183.807 260.08 183.807H205.92C203.363 183.807 200.91 184.823 199.102 186.632C197.293 188.441 196.277 190.895 196.277 193.454C196.277 196.012 197.293 198.466 199.102 200.275C200.91 202.084 203.363 203.101 205.92 203.101V203.101ZM260.08 184.454C261.281 184.421 262.477 184.63 263.596 185.067C264.716 185.505 265.736 186.162 266.597 187.001C267.459 187.839 268.143 188.842 268.611 189.95C269.078 191.058 269.319 192.248 269.319 193.45C269.319 194.653 269.078 195.843 268.611 196.951C268.143 198.058 267.459 199.061 266.597 199.9C265.736 200.738 264.716 201.396 263.596 201.833C262.477 202.271 261.281 202.479 260.08 202.447H205.92C204.719 202.479 203.523 202.271 202.403 201.833C201.284 201.396 200.263 200.738 199.402 199.9C198.541 199.061 197.856 198.058 197.389 196.951C196.921 195.843 196.68 194.653 196.68 193.45C196.68 192.248 196.921 191.058 197.389 189.95C197.856 188.842 198.541 187.839 199.402 187.001C200.263 186.162 201.284 185.505 202.403 185.067C203.523 184.63 204.719 184.421 205.92 184.454H260.08Z" fill="#333333"/>
<path d="M224.842 167.372H241.184C241.717 167.37 242.228 167.157 242.605 166.78C242.982 166.403 243.195 165.891 243.197 165.358C243.195 164.824 242.982 164.313 242.605 163.936C242.228 163.558 241.717 163.346 241.184 163.344H224.842C224.309 163.346 223.798 163.558 223.421 163.936C223.044 164.313 222.831 164.824 222.829 165.358C222.831 165.891 223.044 166.403 223.421 166.78C223.798 167.157 224.309 167.37 224.842 167.372Z" fill="#333333"/>
<path d="M205.92 155.097H260.08C262.637 155.097 265.09 154.081 266.898 152.271C268.706 150.462 269.722 148.009 269.722 145.45C269.722 142.892 268.706 140.438 266.898 138.629C265.09 136.82 262.637 135.803 260.08 135.803H205.92C203.363 135.803 200.91 136.82 199.102 138.629C197.293 140.438 196.277 142.892 196.277 145.45C196.277 148.009 197.293 150.462 199.102 152.271C200.91 154.081 203.363 155.097 205.92 155.097V155.097ZM260.08 136.45C262.465 136.45 264.753 137.398 266.441 139.086C268.128 140.774 269.075 143.063 269.075 145.45C269.075 147.837 268.128 150.126 266.441 151.814C264.753 153.502 262.465 154.45 260.08 154.45H205.92C203.534 154.45 201.246 153.502 199.559 151.814C197.872 150.126 196.924 147.837 196.924 145.45C196.924 143.063 197.872 140.774 199.559 139.086C201.246 137.398 203.534 136.45 205.92 136.45H260.08Z" fill="#333333"/>
<path d="M224.842 143.37H241.184C241.717 143.368 242.228 143.156 242.605 142.778C242.982 142.401 243.195 141.89 243.197 141.356C243.188 140.828 242.972 140.324 242.596 139.954C242.219 139.583 241.712 139.375 241.184 139.375H224.842C224.314 139.375 223.807 139.583 223.43 139.954C223.054 140.324 222.838 140.828 222.829 141.356C222.831 141.89 223.044 142.401 223.421 142.778C223.798 143.156 224.309 143.368 224.842 143.37Z" fill="#333333"/>
<path d="M224.842 191.367H241.184C241.712 191.367 242.219 191.16 242.596 190.789C242.972 190.418 243.188 189.915 243.197 189.386V189.386C243.186 188.858 242.97 188.356 242.594 187.985C242.218 187.615 241.712 187.407 241.184 187.405H224.842C224.315 187.407 223.808 187.615 223.432 187.985C223.056 188.356 222.84 188.858 222.829 189.386C222.838 189.915 223.054 190.418 223.43 190.789C223.807 191.16 224.314 191.367 224.842 191.367Z" fill="#333333"/>
<path d="M186.668 130.759H277.517V126.552L186.668 126.552V130.759Z" fill="#4C4C4C"/>
<path d="M289.516 126.559H277.523V130.765H289.516V126.559Z" fill="#333333"/>
<path d="M212.52 60.3445C214.546 61.3614 220.037 60.2653 218.209 63.9827C217.156 65.9301 215.897 67.7586 214.454 69.4368C212.408 71.9657 212.797 74.7192 215.213 75.6964C215.731 75.8741 216.189 76.1945 216.533 76.6208C217.648 78.2187 215.021 80.3581 213.728 81.956C212.434 83.5539 211.919 85.1254 212.87 86.314C213.926 87.6346 216.117 87.1393 217.859 87.5355C222.044 88.493 217.741 94.2705 218.183 97.2353C218.486 99.269 220.163 99.8368 222.374 100.121C224.202 100.358 226.637 100.524 226.736 102.392C226.829 104.017 224.717 105.852 224.162 107.556C223.899 108.289 223.8 109.07 223.87 109.846C223.941 110.622 224.18 111.372 224.572 112.046C224.943 112.613 225.428 113.098 225.996 113.468C226.564 113.839 227.203 114.087 227.872 114.198C229.944 114.634 233.079 114.198 233.231 116.523C233.297 117.566 232.571 118.503 233.072 119.454C233.35 119.855 233.712 120.191 234.133 120.439C234.553 120.686 235.022 120.839 235.508 120.887C237.493 121.19 239.515 121.155 241.487 120.781C243.923 120.332 247.52 118.186 246.2 116.12C245.972 115.823 245.688 115.575 245.364 115.389C245.04 115.203 244.683 115.084 244.312 115.037C243.731 114.918 242.029 115.103 241.811 114.707C241.593 114.311 242.18 112.785 242.2 112.237C242.26 110.715 242.02 109.196 241.494 107.767C240.822 105.898 239.75 104.199 238.352 102.788C237.772 102.201 236.854 101.772 236.735 100.92C236.617 100.068 237.151 99.1303 237.745 98.2785C238.676 96.9579 240.121 95.7166 240.643 94.3168C241.461 92.1114 239.474 91.4115 237.633 90.9096C235.97 90.454 233.779 89.873 234.333 87.8525C234.742 86.3932 236.584 85.2113 237.131 83.7718C237.877 81.8636 236.069 81.7909 234.782 81.1306C233.099 80.2458 232.676 78.6611 233.284 76.6604C234.293 73.359 240.346 68.6907 237.244 66.5447C236.458 65.9967 235.726 65.8184 235.264 64.993C234.802 64.1676 234.683 63.0121 234.023 62.233C232.98 60.9718 230.822 60.7605 229.7 59.5918C227.383 57.1883 232.379 52.9294 227.819 51.9125C226.856 51.7885 225.944 51.4077 225.179 50.8098C224.763 50.4203 224.42 48.5384 223.951 48.4064C221.859 47.8253 218.09 51.8861 216.902 53.1341C215.457 54.6396 210.118 59.1296 212.52 60.3445Z" fill="#333333"/>
<path d="M248.417 116.351C247.177 114.046 241.745 111.729 245.348 109.088C247.292 107.764 249.383 106.672 251.579 105.832C254.734 104.512 255.856 101.474 254.258 98.9586C253.891 98.4298 253.664 97.8164 253.598 97.1758C253.466 94.8515 256.931 94.2969 258.925 93.4583C260.918 92.6197 262.225 91.3388 262.007 89.5295C261.782 87.5487 259.591 86.6639 258.265 85.1782C255.083 81.5994 261.974 78.3573 263.168 75.0426C263.987 72.7712 262.838 71.1667 261.017 69.483C259.532 68.1029 257.466 66.4258 258.377 64.4449C259.169 62.7281 262.013 62.1603 263.413 60.7604C264.058 60.1276 264.571 59.3726 264.923 58.5394C265.274 57.7062 265.456 56.8115 265.459 55.9073C265.427 54.3229 264.803 52.808 263.71 51.6616C262.112 49.925 259.09 48.4393 260.218 45.95C260.72 44.8407 261.862 44.3455 261.928 43.0447C261.907 42.4814 261.775 41.9279 261.538 41.4165C261.301 40.9051 260.965 40.4462 260.548 40.0668C259.002 38.5513 257.196 37.3277 255.215 36.4549C252.826 35.3985 248.503 35.3654 248.563 38.3038C248.637 39.1689 249.021 39.978 249.645 40.5818C250.1 41.0704 251.698 41.9354 251.678 42.4768C251.658 43.0183 250.358 44.2134 250.008 44.7615C249.133 46.3188 248.537 48.0171 248.246 49.7797C247.837 52.1163 247.875 54.5092 248.358 56.8317C248.549 57.7891 249.137 58.8126 248.78 59.7502C248.424 60.6878 247.46 61.3217 246.49 61.8037C244.966 62.5697 243.019 62.9592 241.811 64.0685C239.903 65.8183 241.283 67.7728 242.642 69.4301C243.87 70.929 245.487 72.8835 243.91 74.6069C242.768 75.8482 240.504 75.9274 239.29 77.0433C237.613 78.5422 239.164 79.7374 239.95 81.2428C240.953 83.2237 240.484 85.0725 238.874 86.7431C236.234 89.5031 228.38 90.52 229.97 94.6667C230.373 95.7165 230.914 96.357 230.894 97.4927C230.875 98.6284 230.353 99.8698 230.512 101.091C230.756 103.033 232.544 104.591 232.914 106.486C233.666 110.388 226.974 111.649 230.459 115.519C231.273 116.282 231.877 117.242 232.214 118.305C232.379 118.966 231.667 121.098 232.01 121.528C233.548 123.423 239.045 121.613 240.761 121.065C242.788 120.372 249.902 119.091 248.417 116.351Z" fill="#4C4C4C"/>
<path d="M262.33 111.154C262.33 111.154 261.67 126.559 236.471 126.559C211.273 126.559 210.613 111.154 210.613 111.154H262.33Z" fill="#333333"/>
<path d="M165 246C235.674 246 292.967 242.654 292.967 238.525C292.967 234.397 235.674 231.051 165 231.051C94.3255 231.051 37.0326 234.397 37.0326 238.525C37.0326 242.654 94.3255 246 165 246Z" fill="#171717"/>
<g opacity="0.2">
<path d="M238.082 232.999L196.046 155.269L154.011 232.999H238.082Z" fill="#397DF6"/>
<path d="M238.082 101.501L196.046 179.224L154.011 101.501H238.082Z" fill="#397DF6"/>
</g>
<path d="M203.749 147.391L197.597 158.762C197.446 159.042 197.223 159.276 196.95 159.439C196.676 159.602 196.364 159.688 196.046 159.688C195.728 159.688 195.416 159.602 195.143 159.439C194.87 159.276 194.646 159.042 194.495 158.762L188.344 147.391C187.79 146.364 187.512 145.209 187.537 144.042C187.562 142.874 187.891 141.733 188.49 140.731C189.088 139.728 189.937 138.898 190.953 138.323C191.969 137.747 193.117 137.446 194.284 137.447H197.842C199.006 137.451 200.15 137.757 201.161 138.335C202.172 138.913 203.017 139.743 203.612 140.745C204.207 141.746 204.532 142.885 204.556 144.05C204.58 145.215 204.302 146.366 203.749 147.391V147.391Z" fill="#397DF6"/>
<path d="M196.713 213.375L215.82 221.232C216.193 221.389 216.5 221.67 216.691 222.028C216.881 222.385 216.942 222.797 216.865 223.194C216.788 223.591 216.576 223.95 216.265 224.21C215.955 224.469 215.565 224.614 215.16 224.62H176.966C176.561 224.614 176.171 224.469 175.86 224.21C175.55 223.95 175.338 223.591 175.261 223.194C175.183 222.797 175.245 222.385 175.435 222.028C175.626 221.67 175.933 221.389 176.306 221.232L195.36 213.375C195.574 213.285 195.804 213.239 196.037 213.239C196.269 213.239 196.499 213.285 196.713 213.375V213.375Z" fill="#397DF6"/>
<path d="M196.047 198.426C197.399 198.426 198.495 197.329 198.495 195.976C198.495 194.623 197.399 193.526 196.047 193.526C194.694 193.526 193.598 194.623 193.598 195.976C193.598 197.329 194.694 198.426 196.047 198.426Z" fill="#397DF6"/>
<path d="M196.046 171.651C196.743 171.651 197.307 171.086 197.307 170.389C197.307 169.693 196.743 169.128 196.046 169.128C195.35 169.128 194.786 169.693 194.786 170.389C194.786 171.086 195.35 171.651 196.046 171.651Z" fill="#397DF6"/>
<path d="M196.046 184.018C196.837 184.018 197.479 183.377 197.479 182.585C197.479 181.794 196.837 181.152 196.046 181.152C195.255 181.152 194.614 181.794 194.614 182.585C194.614 183.377 195.255 184.018 196.046 184.018Z" fill="#397DF6"/>
<path d="M237.871 229.162H154.222C153.207 229.166 152.234 229.571 151.517 230.29C150.8 231.009 150.396 231.983 150.394 232.999V232.999C150.398 234.013 150.802 234.985 151.519 235.703C152.236 236.42 153.208 236.825 154.222 236.828H237.871C238.885 236.825 239.857 236.42 240.574 235.703C241.291 234.985 241.695 234.013 241.699 232.999V232.999C241.697 231.983 241.293 231.009 240.576 230.29C239.859 229.571 238.886 229.166 237.871 229.162V229.162Z" fill="#397DF6"/>
<path d="M237.871 97.6711H154.222C153.208 97.6745 152.236 98.0791 151.519 98.7966C150.802 99.5141 150.398 100.486 150.394 101.501C150.398 102.515 150.802 103.487 151.519 104.205C152.236 104.922 153.208 105.327 154.222 105.33H237.871C238.885 105.327 239.857 104.922 240.574 104.205C241.291 103.487 241.695 102.515 241.699 101.501V101.501C241.695 100.486 241.291 99.5141 240.574 98.7966C239.857 98.0791 238.885 97.6745 237.871 97.6711Z" fill="#397DF6"/>
<path d="M128.456 231.553L123.803 230.041L126.694 219.06L131.347 220.572L128.456 231.553Z" fill="#FF8B7B"/>
<path d="M123.73 229.42L128.957 231.117C129.046 231.143 129.12 231.202 129.166 231.282C129.211 231.362 129.224 231.457 129.202 231.546L128.113 235.772C128.043 235.99 127.89 236.171 127.687 236.276C127.484 236.381 127.248 236.402 127.03 236.333C125.222 235.713 124.39 235.323 122.087 234.577C120.668 234.115 116.008 232.913 114.055 232.279C112.101 231.645 112.781 229.73 113.665 229.823C117.625 230.239 121.189 230.054 122.839 229.446C123.125 229.339 123.438 229.33 123.73 229.42V229.42Z" fill="#263238"/>
<path opacity="0.2" d="M131.347 220.579L126.694 219.06L125.202 224.725L129.862 226.237L131.347 220.579Z" fill="black"/>
<path d="M144.065 109.424C144.065 109.424 135.716 148.085 133.756 161.984C131.611 177.204 123.552 222.909 123.552 222.909L132.191 225.3C132.191 225.3 144.164 180.974 147.662 166.177C151.457 150.112 161.522 109.391 161.522 109.391L144.065 109.424Z" fill="#397DF6"/>
<path opacity="0.3" d="M154.387 122.102C151.087 129.59 149.457 145.873 150.737 153.367C153.074 143.76 155.885 132.337 158.057 123.548C157.324 120.999 156.11 118.193 154.387 122.102Z" fill="black"/>
<path d="M132.409 225.471L123.156 222.923L123.341 219.152L133.756 222.751L132.409 225.471Z" fill="#263238"/>
<path d="M121.816 229.697C122.247 229.822 122.689 229.902 123.136 229.934C123.158 229.936 123.18 229.931 123.2 229.92C123.219 229.91 123.235 229.894 123.246 229.875C123.257 229.855 123.263 229.834 123.262 229.811C123.261 229.789 123.254 229.768 123.242 229.749C123.123 229.598 122.1 228.271 121.46 228.311C121.386 228.314 121.315 228.337 121.252 228.376C121.19 228.415 121.138 228.47 121.103 228.535C121.037 228.631 120.997 228.742 120.988 228.858C120.979 228.974 121 229.09 121.051 229.195C121.238 229.448 121.509 229.626 121.816 229.697ZM122.866 229.697C121.981 229.591 121.374 229.367 121.229 229.083C121.198 229.016 121.187 228.942 121.195 228.869C121.203 228.795 121.231 228.726 121.275 228.667C121.292 228.635 121.316 228.608 121.346 228.589C121.376 228.569 121.411 228.557 121.447 228.555C121.79 228.515 122.437 229.162 122.866 229.677V229.697Z" fill="#263238"/>
<path d="M123.09 229.928H123.143C123.162 229.924 123.18 229.916 123.195 229.903C123.21 229.89 123.221 229.874 123.229 229.856C123.229 229.803 123.79 228.496 123.466 227.875C123.426 227.797 123.368 227.729 123.297 227.678C123.226 227.626 123.144 227.592 123.057 227.578C122.963 227.55 122.863 227.554 122.772 227.59C122.681 227.626 122.605 227.691 122.555 227.776C122.285 228.251 122.661 229.446 123.037 229.876L123.09 229.928ZM123.09 227.835C123.134 227.848 123.175 227.87 123.21 227.899C123.246 227.929 123.274 227.966 123.295 228.007C123.405 228.539 123.343 229.092 123.116 229.585C122.797 229.091 122.677 228.494 122.78 227.915C122.78 227.855 122.872 227.789 123.037 227.822L123.09 227.835Z" fill="#263238"/>
<path d="M152.948 72.7185C152.698 73.3127 152.486 73.7617 152.255 74.2636C152.024 74.7654 151.774 75.2276 151.529 75.703C151.041 76.6604 150.526 77.5915 149.992 78.5225C148.912 80.392 147.722 82.1956 146.428 83.9237C145.103 85.7108 143.635 87.3869 142.039 88.9353C140.338 90.6106 138.409 92.0376 136.31 93.1744L136.145 93.2603C135.878 93.3983 135.594 93.5004 135.3 93.564C133.797 93.8768 132.24 93.8156 130.766 93.3857C129.541 93.0191 128.376 92.4764 127.307 91.7746C125.515 90.5684 123.905 89.1095 122.529 87.4431C121.251 85.9234 120.088 84.3099 119.051 82.6163C118.027 80.9519 117.116 79.2202 116.325 77.433C116.121 76.9603 116.095 76.43 116.25 75.9393C116.406 75.4486 116.733 75.0305 117.172 74.7617C117.611 74.4929 118.132 74.3913 118.639 74.4757C119.147 74.56 119.607 74.8247 119.935 75.221L120.001 75.3002C121.09 76.6208 122.272 78.0272 123.46 79.3082C124.617 80.5836 125.847 81.7918 127.142 82.9266C128.288 83.965 129.561 84.8526 130.931 85.5678C131.443 85.8314 131.993 86.014 132.561 86.1093C132.879 86.1684 133.207 86.1411 133.511 86.03L132.502 86.4196C133.866 85.4995 135.109 84.4126 136.204 83.1842C137.396 81.8451 138.498 80.429 139.504 78.9451C140.547 77.4264 141.537 75.8351 142.468 74.1975C142.943 73.3854 143.398 72.56 143.827 71.7214L144.487 70.4735C144.692 70.0707 144.916 69.6085 145.075 69.2849L145.114 69.1925C145.595 68.1767 146.456 67.3903 147.51 67.0023C148.565 66.6142 149.729 66.6556 150.754 67.1174C151.778 67.5792 152.58 68.4246 152.988 69.472C153.396 70.5193 153.377 71.685 152.935 72.7185H152.948Z" fill="#263238"/>
<path opacity="0.3" d="M142.157 81.6853C144.23 76.1784 148.632 76.086 150.539 77.5452C150.401 77.8028 150.256 78.0603 150.11 78.3178C149.075 80.1205 147.94 81.8641 146.711 83.5407C145.45 85.2657 144.063 86.8945 142.56 88.4137C142.085 88.8825 141.596 89.3447 141.088 89.7937C140.913 87.0471 141.277 84.2927 142.157 81.6853V81.6853Z" fill="black"/>
<path d="M116.16 77.7763L111.87 77.9348L112.939 73.3457C114.416 73.4191 115.882 73.6403 117.315 74.006C117.576 74.0851 117.815 74.2244 118.012 74.4129C118.209 74.6013 118.358 74.8336 118.449 75.0908C118.54 75.348 118.568 75.6229 118.533 75.8933C118.498 76.1637 118.399 76.422 118.246 76.6472C118.014 76.9885 117.703 77.2692 117.34 77.4656C116.977 77.6621 116.573 77.7686 116.16 77.7763Z" fill="#FF8B7B"/>
<path d="M118.562 73.9003C118.141 73.5663 117.659 73.3174 117.143 73.1674C116.787 75.0426 114.503 78.2055 114.503 78.2055H116.292C116.522 78.2061 116.749 78.1562 116.958 78.0592C117.167 77.9622 117.352 77.8205 117.5 77.6442L118.754 76.1387C118.891 75.9806 118.995 75.7964 119.06 75.5972C119.125 75.398 119.149 75.1878 119.131 74.979C119.114 74.7702 119.054 74.5672 118.956 74.3819C118.858 74.1966 118.724 74.0328 118.562 73.9003V73.9003Z" fill="#397DF6"/>
<path d="M108.583 75.8218L109.784 72.5864L112.926 73.3523L111.857 77.9348L108.583 75.8218Z" fill="#FF8B7B"/>
<path d="M162.525 233.692H157.634L157.463 222.355H162.353L162.525 233.692Z" fill="#FF8B7B"/>
<path d="M157.377 233.124H162.875C162.921 233.122 162.967 233.13 163.01 233.146C163.053 233.162 163.092 233.186 163.126 233.217C163.16 233.249 163.187 233.286 163.206 233.328C163.225 233.37 163.236 233.415 163.238 233.461L163.502 237.812C163.502 238.041 163.412 238.261 163.251 238.424C163.091 238.587 162.873 238.68 162.644 238.684C160.73 238.651 159.819 238.539 157.364 238.539C155.879 238.539 150.909 238.69 148.856 238.69C146.804 238.69 146.876 236.657 147.728 236.472C151.635 235.653 155.12 234.491 156.499 233.428C156.747 233.227 157.058 233.12 157.377 233.124V233.124Z" fill="#263238"/>
<path opacity="0.2" d="M162.36 222.361H157.463L157.555 228.205H162.446L162.36 222.361Z" fill="black"/>
<path d="M153.608 109.424C153.608 109.424 151.741 151.954 152.533 165.972C153.404 181.317 155.225 226.792 155.225 226.792H164.188C164.188 226.792 166.445 182.552 166.987 167.365C167.574 150.858 170.234 109.424 170.234 109.424H153.608Z" fill="#397DF6"/>
<path d="M164.551 226.792H154.869L154.13 223.187L164.815 223.722L164.551 226.792Z" fill="#263238"/>
<path d="M155.641 233.975C156.086 233.964 156.528 233.907 156.961 233.804C156.982 233.797 157.001 233.785 157.016 233.769C157.031 233.752 157.041 233.733 157.047 233.711C157.049 233.69 157.046 233.669 157.038 233.649C157.03 233.63 157.017 233.612 157.001 233.599C156.842 233.487 155.456 232.543 154.856 232.781C154.789 232.808 154.73 232.851 154.684 232.906C154.638 232.961 154.606 233.027 154.592 233.098C154.562 233.205 154.559 233.318 154.585 233.427C154.61 233.535 154.662 233.635 154.737 233.718C154.997 233.912 155.318 234.003 155.641 233.975ZM156.631 233.639C155.753 233.81 155.113 233.784 154.882 233.56C154.835 233.504 154.802 233.437 154.789 233.365C154.775 233.294 154.78 233.22 154.803 233.15C154.808 233.115 154.822 233.082 154.844 233.054C154.866 233.026 154.895 233.005 154.928 232.992C155.252 232.867 156.064 233.276 156.631 233.639V233.639Z" fill="#263238"/>
<path d="M156.922 233.804C156.939 233.81 156.958 233.81 156.975 233.804C156.991 233.795 157.006 233.781 157.016 233.765C157.026 233.749 157.033 233.731 157.034 233.712C157.034 233.652 157.147 232.246 156.651 231.771C156.588 231.709 156.512 231.663 156.429 231.635C156.345 231.608 156.256 231.6 156.169 231.612C156.073 231.616 155.98 231.652 155.906 231.714C155.832 231.776 155.78 231.861 155.76 231.955C155.641 232.49 156.374 233.514 156.863 233.804C156.882 233.81 156.903 233.81 156.922 233.804V233.804ZM156.262 231.823C156.307 231.822 156.352 231.83 156.394 231.847C156.436 231.865 156.474 231.89 156.506 231.922C156.779 232.394 156.892 232.94 156.83 233.481C156.407 233.118 155.918 232.338 155.991 231.988C155.991 231.922 156.044 231.843 156.209 231.823H156.262Z" fill="#263238"/>
<path d="M172.682 69.9518C172.756 69.539 172.745 69.1156 172.651 68.7071C172.557 68.2986 172.381 67.9133 172.134 67.5742C171.888 67.2351 171.576 66.9493 171.216 66.7338C170.857 66.5184 170.458 66.3777 170.042 66.3202H169.99C168.412 66.089 166.432 65.8513 164.492 65.7589C160.788 65.5474 157.075 65.5474 153.371 65.7589C151.661 65.9174 149.992 66.2013 148.658 66.4588H148.606C147.772 66.6272 147 67.02 146.373 67.5948C145.747 68.1696 145.288 68.9046 145.048 69.7207C143.451 75.1021 141.544 86.0894 144.038 109.418H170.207C170.392 107.08 169.871 99.4736 170.254 89.7871C170.636 83.1299 171.447 76.5044 172.682 69.9518V69.9518Z" fill="#263238"/>
<path opacity="0.3" d="M172.432 71.3912C171.89 74.521 171.224 78.78 170.762 83.2766C170.762 83.2766 168.373 78.5885 167.937 74.5805C167.501 70.5725 170.94 70.2687 172.432 71.3912Z" fill="black"/>
<g opacity="0.2">
<path d="M154.882 72.0119C154.828 72.0094 154.776 71.9893 154.734 71.9546C154.692 71.9199 154.663 71.8726 154.65 71.8197C154.637 71.7668 154.642 71.7112 154.664 71.6613C154.685 71.6115 154.723 71.57 154.77 71.5431L162.928 67.3106C162.986 67.2824 163.052 67.2776 163.114 67.2972C163.175 67.3169 163.227 67.3595 163.258 67.4162C163.288 67.475 163.294 67.5433 163.274 67.6063C163.254 67.6694 163.21 67.7221 163.152 67.753L154.994 71.9723C154.96 71.9926 154.922 72.0061 154.882 72.0119V72.0119Z" fill="white"/>
<path d="M158.618 72.3949C158.586 72.3963 158.553 72.3905 158.524 72.3779C158.494 72.3653 158.468 72.3463 158.446 72.3223L153.971 67.8785C153.927 67.8309 153.903 67.7684 153.903 67.7035C153.903 67.6386 153.927 67.5761 153.971 67.5285C154.018 67.483 154.081 67.4575 154.146 67.4575C154.212 67.4575 154.274 67.483 154.321 67.5285L158.789 71.9789C158.835 72.0258 158.86 72.0886 158.86 72.1539C158.86 72.2193 158.835 72.282 158.789 72.3289C158.767 72.3507 158.74 72.3678 158.71 72.3792C158.681 72.3905 158.649 72.3959 158.618 72.3949V72.3949Z" fill="white"/>
<path d="M164.512 65.7523C160.81 65.5408 157.099 65.5408 153.397 65.7523H153.212C153.123 66.0921 153.101 66.4464 153.15 66.7945C153.199 67.1425 153.316 67.4774 153.496 67.7794C154.117 68.7698 155.417 69.3245 157.37 69.4301H158.103C163.383 69.4301 165.422 66.2211 165.508 66.0824L165.693 65.7853L164.512 65.7523Z" fill="white"/>
</g>
<path d="M153.925 65.7127C157.159 64.9468 157.727 62.9461 157.509 60.7473C157.458 60.1966 157.372 59.6497 157.252 59.1098L161.304 55.7423L164.281 53.2728C163.456 56.8582 162.525 63.3885 164.941 65.7788C164.941 65.7788 162.961 69.0802 157.397 68.7897C152.731 68.5322 153.925 65.7127 153.925 65.7127Z" fill="#FF8B7B"/>
<path opacity="0.2" d="M157.252 59.1098C157.372 59.6497 157.458 60.1966 157.509 60.7473C159.02 60.4436 161.04 58.8325 161.251 57.2874C161.325 56.7759 161.343 56.2577 161.304 55.7423L157.252 59.1098Z" fill="black"/>
<path d="M155.1 41.9287C152.902 43.2493 153.252 46.5508 152.658 48.9147C154.057 49.0533 156.262 46.564 156.262 46.564L157.582 42.7805L155.1 41.9287Z" fill="#263238"/>
<path d="M166.789 48.5713C165.383 53.233 164.809 56.0261 161.825 57.974C160.866 58.6158 159.749 58.983 158.597 59.0359C157.444 59.0887 156.298 58.8251 155.284 58.2737C154.27 57.7223 153.426 56.904 152.843 55.9073C152.261 54.9106 151.962 53.7735 151.978 52.619C151.978 48.1752 154.262 41.2949 159.357 40.344C160.455 40.1092 161.596 40.1676 162.664 40.5132C163.733 40.8588 164.692 41.4796 165.445 42.3132C166.198 43.1467 166.718 44.1638 166.954 45.2623C167.19 46.3607 167.133 47.5019 166.789 48.5713V48.5713Z" fill="#FF8B7B"/>
<path d="M162.4 52.5266C165.7 48.6969 161.575 46.8084 164.947 44.1474C161.152 44.3257 154.902 44.055 153.787 41.4534C152.671 38.8519 156.103 35.3259 158.961 34.9957C162.261 34.6128 161.548 38.7 161.548 38.7C161.548 38.7 174.174 37.9142 170.168 43.3221C173.204 43.1372 172.366 48.0498 167.086 52.1964C165.759 52.6388 162.4 52.5266 162.4 52.5266Z" fill="#263238"/>
<path d="M169.409 43.3881C169.409 43.3881 172.009 42.6155 171.923 40.5554C172.861 41.2025 172.96 43.1702 169.409 43.3881Z" fill="#263238"/>
<path d="M167.561 53.4378C166.801 54.3765 165.74 55.0229 164.558 55.2669C163.06 55.5376 162.71 54.151 163.456 52.7974C164.116 51.5824 165.719 49.9779 167.066 50.3146C168.412 50.6514 168.518 52.2559 167.561 53.4378Z" fill="#FF8B7B"/>
<path d="M159.272 48.4527C159.179 48.8356 158.902 49.1129 158.644 49.0535C158.387 48.9941 158.261 48.6507 158.354 48.2678C158.446 47.8848 158.724 47.6075 158.974 47.6603C159.225 47.7131 159.364 48.0631 159.272 48.4527Z" fill="#263238"/>
<path d="M154.896 47.5744C154.803 47.9574 154.526 48.2347 154.275 48.1818C154.024 48.129 153.886 47.7791 153.978 47.3961C154.07 47.0131 154.348 46.7358 154.599 46.7886C154.85 46.8414 154.988 47.1914 154.896 47.5744Z" fill="#263238"/>
<path d="M156.242 48.0431C155.497 49.1302 154.609 50.1118 153.602 50.9616C153.826 51.2036 154.101 51.3935 154.406 51.5178C154.712 51.6422 155.041 51.698 155.371 51.6813L156.242 48.0431Z" fill="#FF5652"/>
<path d="M156.717 53.0279C157.174 53.0708 157.635 53.0204 158.071 52.8797C158.508 52.739 158.912 52.511 159.258 52.2095C159.269 52.1996 159.278 52.1874 159.284 52.1737C159.29 52.1601 159.294 52.1453 159.294 52.1303C159.294 52.1153 159.29 52.1005 159.284 52.0868C159.278 52.0732 159.269 52.061 159.258 52.0511C159.236 52.0297 159.206 52.0178 159.175 52.0178C159.145 52.0178 159.115 52.0297 159.093 52.0511C158.714 52.3736 158.265 52.604 157.782 52.7242C157.298 52.8444 156.794 52.8512 156.308 52.7441C156.293 52.7412 156.278 52.7414 156.263 52.7445C156.248 52.7477 156.234 52.7537 156.222 52.7623C156.21 52.771 156.199 52.782 156.191 52.7947C156.183 52.8074 156.178 52.8216 156.176 52.8365C156.17 52.8671 156.176 52.8988 156.194 52.9247C156.211 52.9506 156.238 52.9687 156.268 52.9751L156.717 53.0279Z" fill="#263238"/>
<path d="M160.962 47.3828C160.998 47.3949 161.037 47.3949 161.074 47.3828C161.101 47.3707 161.126 47.3532 161.147 47.3312C161.168 47.3092 161.184 47.2832 161.195 47.2549C161.205 47.2265 161.21 47.1963 161.208 47.1661C161.207 47.1359 161.199 47.1063 161.186 47.0791C161.044 46.7415 160.821 46.4442 160.537 46.2138C160.252 45.9833 159.915 45.8269 159.555 45.7585C159.494 45.7509 159.432 45.7672 159.383 45.8042C159.334 45.8411 159.301 45.8958 159.291 45.9566C159.287 45.987 159.29 46.0178 159.298 46.0472C159.306 46.0767 159.32 46.1042 159.339 46.1281C159.359 46.1521 159.382 46.172 159.409 46.1868C159.436 46.2015 159.465 46.2108 159.496 46.2141C159.775 46.2731 160.037 46.3988 160.257 46.5804C160.478 46.7621 160.652 46.9943 160.763 47.2574C160.783 47.2936 160.811 47.3242 160.846 47.3462C160.881 47.3682 160.92 47.3808 160.962 47.3828V47.3828Z" fill="#263238"/>
<path d="M153.813 44.946C153.848 44.9589 153.887 44.962 153.924 44.9551C153.961 44.9481 153.996 44.9313 154.024 44.9064C154.252 44.7167 154.521 44.5827 154.81 44.5151C155.098 44.4475 155.399 44.4482 155.687 44.517C155.716 44.5265 155.747 44.5302 155.777 44.5279C155.808 44.5256 155.838 44.5174 155.865 44.5036C155.892 44.4898 155.917 44.4708 155.936 44.4476C155.956 44.4244 155.972 44.3975 155.981 44.3685C155.991 44.3395 155.994 44.3088 155.992 44.2784C155.99 44.2479 155.981 44.2182 155.968 44.1909C155.954 44.1636 155.935 44.1393 155.912 44.1194C155.888 44.0995 155.862 44.0843 155.833 44.0748V44.0748C155.471 43.9856 155.094 43.9814 154.731 44.0627C154.368 44.1441 154.029 44.3086 153.74 44.5434C153.692 44.5811 153.661 44.6363 153.654 44.6969C153.646 44.7575 153.663 44.8186 153.701 44.8668C153.727 44.9057 153.767 44.9338 153.813 44.946V44.946Z" fill="#263238"/>
<path d="M172.92 68.07L173.468 68.8161L173.963 69.516C174.293 69.9849 174.59 70.4537 174.9 70.9225C175.501 71.8667 176.068 72.8241 176.616 73.7882C177.714 75.7153 178.71 77.699 179.599 79.7308C180.061 80.7345 180.457 81.7777 180.88 82.8012C181.302 83.8247 181.658 84.8877 181.982 85.9574C182.677 88.0864 183.25 90.2535 183.698 92.4481L183.751 92.699C183.847 93.1422 183.856 93.6001 183.776 94.0466C183.695 94.493 183.527 94.9192 183.282 95.3006C182.432 96.6064 181.423 97.8018 180.279 98.8596C179.102 99.9383 177.767 100.829 176.319 101.501C174.89 102.167 173.36 102.591 171.791 102.755C171.024 102.834 170.251 102.848 169.481 102.795C169.099 102.795 168.716 102.722 168.333 102.663L167.752 102.551L167.092 102.386C167.015 102.367 166.948 102.318 166.905 102.25C166.863 102.182 166.85 102.1 166.868 102.022L167.779 98.1927C167.779 98.1597 167.95 98.1531 168.056 98.1267L168.419 98.054C168.67 98.0012 168.914 97.9418 169.165 97.8758C169.654 97.7433 170.132 97.5756 170.597 97.3739C171.496 97.0045 172.339 96.5087 173.098 95.9015C174.584 94.6778 175.772 93.1308 176.57 91.3785L176.154 94.2309C175.586 92.3623 174.986 90.5135 174.26 88.6844C173.534 86.8554 172.742 85.0594 171.877 83.2898C171.013 81.5202 170.089 79.7704 169.092 78.0669C168.604 77.2151 168.089 76.3765 167.574 75.5445L166.789 74.3164L166.399 73.7221L166.036 73.1939L165.904 72.9958C165.251 72.065 164.995 70.9129 165.191 69.7929C165.387 68.6728 166.02 67.6766 166.95 67.0234C167.881 66.3702 169.032 66.1135 170.152 66.3098C171.271 66.5061 172.267 67.1392 172.92 68.07Z" fill="#263238"/>
<path d="M164.195 102.003L162.776 104.327L168.934 104.083C168.934 104.083 170.551 99.9359 168.346 99.2822L167.488 99.5133C166.116 99.8978 164.94 100.787 164.195 102.003V102.003Z" fill="#FF8B7B"/>
<path d="M166.729 98.7472C166.286 99.0473 165.905 99.4308 165.607 99.8763C167.284 100.788 169.62 103.891 169.62 103.891L170.161 102.187C170.23 101.968 170.25 101.735 170.219 101.507C170.188 101.279 170.108 101.06 169.983 100.867L168.96 99.216C168.848 99.0343 168.701 98.8773 168.526 98.7546C168.352 98.6318 168.154 98.5459 167.945 98.502C167.737 98.4581 167.521 98.4573 167.312 98.4994C167.103 98.5416 166.905 98.6259 166.729 98.7472V98.7472Z" fill="#397DF6"/>
<path d="M163.317 107.906L168.392 107.457L168.934 104.082L162.776 104.327L163.317 107.906Z" fill="#FF8B7B"/>
<path d="M101.02 27.2958L100.683 26.7282C101.651 26.1546 102.659 25.6517 103.699 25.2234L103.95 25.8372C102.938 26.2501 101.959 26.7376 101.02 27.2958V27.2958Z" fill="#397DF6"/>
<path d="M91.3835 38.9575L90.7235 38.733C92.2881 34.3988 95.1187 30.6352 98.8481 27.9306L99.2375 28.4654C95.6259 31.0945 92.8891 34.7505 91.3835 38.9575V38.9575Z" fill="#397DF6"/>
<path d="M112.332 66.8023C123.551 66.8023 132.647 57.7029 132.647 46.4784C132.647 35.2538 123.551 26.1544 112.332 26.1544C101.112 26.1544 92.0171 35.2538 92.0171 46.4784C92.0171 57.7029 101.112 66.8023 112.332 66.8023Z" fill="#234E99"/>
<path opacity="0.6" d="M129.301 46.4784C129.299 50.4389 127.914 54.2744 125.384 57.3208C122.854 60.3673 119.34 62.433 115.448 63.1603C111.557 63.8877 107.534 63.2309 104.075 61.3037C100.617 59.3765 97.9405 56.3002 96.51 52.6073C95.0795 48.9144 94.9846 44.8373 96.2418 41.0817C97.499 37.3262 100.029 34.1286 103.394 32.0425C106.759 29.9563 110.748 29.113 114.669 29.6583C118.59 30.2037 122.197 32.1035 124.865 35.0289C124.871 35.0265 124.876 35.0252 124.882 35.0252C124.888 35.0252 124.893 35.0265 124.898 35.0289C127.744 38.1613 129.314 42.2457 129.301 46.4784V46.4784Z" fill="white"/>
<path d="M129.301 46.4783C129.301 49.7782 128.339 53.0065 126.534 55.7684C124.729 58.5303 122.158 60.706 119.137 62.0293C116.115 63.3527 112.774 63.7663 109.521 63.2197C106.268 62.673 103.245 61.1898 100.822 58.9513C97.8585 55.721 96.2595 51.469 96.3595 47.0857C96.4595 42.7024 98.2508 38.5279 101.358 35.4362C104.466 32.3445 108.648 30.5754 113.03 30.4995C117.412 30.4236 121.653 32.0466 124.865 35.0288C124.871 35.0264 124.876 35.0252 124.882 35.0252C124.888 35.0252 124.893 35.0264 124.898 35.0288C127.744 38.1612 129.314 42.2457 129.301 46.4783V46.4783Z" fill="white"/>
<path d="M112.332 47.4688C112.202 47.4691 112.073 47.4435 111.953 47.3937C111.833 47.3438 111.724 47.2706 111.632 47.1783L103.356 38.8982C103.259 38.8075 103.181 38.6982 103.127 38.5767C103.072 38.4552 103.043 38.324 103.041 38.191C103.039 38.0581 103.063 37.926 103.113 37.8026C103.163 37.6793 103.237 37.5673 103.331 37.4732C103.425 37.3792 103.537 37.305 103.66 37.2552C103.783 37.2054 103.915 37.1809 104.048 37.1833C104.181 37.1856 104.312 37.2147 104.434 37.2689C104.555 37.323 104.665 37.4011 104.755 37.4984L112.332 45.0786L116.708 40.7008C116.895 40.5259 117.144 40.4306 117.4 40.4351C117.657 40.4397 117.901 40.5436 118.083 40.7251C118.264 40.9065 118.368 41.1514 118.373 41.408C118.377 41.6645 118.282 41.9129 118.107 42.1006L113.032 47.1783C112.846 47.3635 112.594 47.4679 112.332 47.4688V47.4688Z" fill="#263238"/>
</svg>
