<svg width="36" height="36" viewBox="0 0 36 36" fill="none" xmlns="http://www.w3.org/2000/svg">
<g clip-path="url(#clip0_26444_7665)">
<path d="M29.9925 4.58093C27.984 3.19643 25.4985 2.36993 22.8195 2.36993C22.806 2.36993 22.7925 2.36993 22.7775 2.36993C22.77 2.36993 22.761 2.36993 22.752 2.36993C20.607 2.36993 18.5895 2.91443 16.8285 3.87293L16.893 3.83993C14.985 4.86743 13.3815 6.21443 12.0945 7.82693L12.0705 7.85843C11.0715 9.10793 10.2585 10.5599 9.70198 12.1349L9.67048 12.2384C9.09448 13.8239 8.74048 15.6539 8.69698 17.5619V17.5829V18.4229C8.74198 20.3489 9.09598 22.1774 9.70948 23.8829L9.67198 23.7629C10.26 25.4414 11.073 26.8934 12.0945 28.1729L12.072 28.1429C13.3815 29.7869 14.985 31.1339 16.812 32.1224L16.893 32.1629C18.5865 33.0869 20.6025 33.6299 22.7445 33.6299H22.7805H22.779H22.818C25.497 33.6299 27.9825 32.8034 30.0345 31.3919L29.991 31.4204C28.431 32.8214 26.604 33.9644 24.6 34.7609L24.477 34.8044C22.581 35.5634 20.382 36.0044 18.081 36.0044C18.051 36.0044 18.021 36.0044 17.9925 36.0044H17.997C17.609 36.0044 17.321 35.9974 17.133 35.9834C14.6835 35.8739 12.399 35.2784 10.338 34.2899L10.443 34.3349C6.29398 32.4179 3.07948 29.0669 1.38448 24.9314L1.34098 24.8129C0.490483 22.8014 -0.0045166 20.4629 -0.0045166 18.0089C-0.0045166 15.4814 0.520483 13.0769 1.46548 10.8974L1.42048 11.0129C3.25348 6.65843 6.64948 3.26393 10.887 1.47293L11.0025 1.42943C13.0485 0.52793 15.435 0.00292969 17.943 0.00292969H17.9955H18.0525C22.6455 0.0194297 26.832 1.75493 30.0015 4.59893L29.985 4.58393L29.9925 4.58093ZM36 17.9999V18.0914C36 20.6969 35.43 23.1704 34.4085 25.3919L34.4535 25.2839C33.3945 27.6149 31.9515 29.5949 30.186 31.2299L30.174 31.2404C28.908 32.0354 27.3705 32.5064 25.722 32.5064C25.719 32.5064 25.716 32.5064 25.7145 32.5064C23.7855 32.5034 22.0065 31.8704 20.568 30.8024L20.5905 30.8189C22.824 29.9099 24.6015 28.2674 25.6575 26.1944L25.683 26.1389C26.943 23.8784 27.6855 21.1784 27.6855 18.3074C27.6855 18.1994 27.684 18.0914 27.6825 17.9849V18.0014C27.684 17.9129 27.6855 17.8079 27.6855 17.7029C27.6855 14.8364 26.9475 12.1439 25.6515 9.80243L25.6935 9.88643C24.6135 7.75493 22.8405 6.10643 20.676 5.20943L20.6115 5.18543C22.0245 4.15043 23.796 3.52643 25.7115 3.51743C27.3945 3.52043 28.9635 4.00643 30.288 4.84343L30.252 4.82243C32.016 6.45743 33.444 8.42693 34.4355 10.6364L34.4805 10.7489C35.439 12.8564 35.997 15.3179 35.997 17.9114V18.0059V18.0014L36 17.9999Z" fill="white"/>
</g>
<defs>
<clipPath id="clip0_26444_7665">
<rect width="36" height="36" fill="white"/>
</clipPath>
</defs>
</svg>
