<svg width="36" height="36" viewBox="0 0 36 36" fill="none" xmlns="http://www.w3.org/2000/svg">
<g clip-path="url(#clip0_26444_7668)">
<path d="M30.722 5.27738C27.467 2.02071 22.9598 0 17.9997 0C13.0392 0 8.53198 2.02071 5.27742 5.27738C2.02132 8.53249 -0.000584431 13.0397 0.000610881 18.0003C-0.000514119 22.9604 2.02132 27.4676 5.27742 30.7226C8.53191 33.9788 13.0391 36.0006 17.9997 36C22.9598 36.0006 27.467 33.9787 30.722 30.7226C33.9788 27.4676 36 22.9604 35.9995 18.0003C36 13.0397 33.9788 8.53249 30.722 5.27738ZM28.9796 28.9801C26.1619 31.7957 22.285 33.5353 17.9998 33.5358C13.7146 33.5353 9.83768 31.7956 7.01991 28.9801C4.20438 26.1624 2.46478 22.2854 2.46422 18.0003C2.46478 13.7151 4.20438 9.8382 7.01991 7.02042C9.83768 4.20434 13.7146 2.46523 17.9998 2.46466C22.285 2.46523 26.1619 4.20434 28.9796 7.02042C31.7952 9.8382 33.5348 13.7151 33.5359 18.0003C33.5348 22.2855 31.7952 26.1624 28.9796 28.9801Z" fill="white"/>
<path d="M17.9997 4.31641C10.4422 4.31641 4.3158 10.4427 4.3158 18.0003C4.3158 25.5572 10.4421 31.6836 17.9997 31.6836C25.5578 31.6836 31.6841 25.5572 31.6841 18.0003C31.6842 10.4428 25.5578 4.31641 17.9997 4.31641ZM29.8865 16.5083L27.0225 17.0141L26.815 15.8417L29.6802 15.3364L29.8865 16.5083ZM28.0643 11.5026L28.6595 12.5332L26.1401 13.9873L25.5455 12.9571L28.0643 11.5026ZM21.5325 6.55298L22.6519 6.96016L21.6568 9.69377L20.5385 9.28708L21.5325 6.55298ZM17.4045 6.03484H18.5948V8.94409H17.4045V6.03484ZM14.4664 6.55298L15.4615 9.28708L14.3431 9.6932L13.3487 6.96016L14.4664 6.55298ZM10.7646 8.45212L12.6341 10.6803L11.7227 11.4445L9.85319 9.21627L10.7646 8.45212ZM7.93513 11.5026L10.4539 12.9565L9.85874 13.9873L7.34001 12.5327L7.93513 11.5026ZM6.31984 15.3364L9.18395 15.8417L8.97758 17.0141L6.11291 16.5083L6.31984 15.3364ZM6.11291 19.4917L8.97758 18.9869L9.18395 20.1587L6.31984 20.6635L6.11291 19.4917ZM7.93457 24.4981L7.34001 23.4674L9.85874 22.0134L10.4539 23.0435L7.93457 24.4981ZM14.4664 29.447L13.3481 29.0404L14.3431 26.3068L15.4615 26.714L14.4664 29.447ZM18.5948 29.9651H17.4045V27.0565H18.5948V29.9651ZM10.0435 27.2935L16.79 16.949L26.0408 8.76613L19.2943 19.1114L10.0435 27.2935ZM21.5325 29.4476L20.5386 26.714L21.6569 26.3068L22.6508 29.0404L21.5325 29.4476ZM25.2355 27.549L23.3653 25.3202L24.2772 24.5555L26.1462 26.7837L25.2355 27.549ZM28.0649 24.4981L25.5455 23.0435L26.1406 22.0134L28.6595 23.4674L28.0649 24.4981ZM29.6807 20.6636L26.8155 20.1588L27.0224 18.987L29.8864 19.4917L29.6807 20.6636Z" fill="white"/>
</g>
<defs>
<clipPath id="clip0_26444_7668">
<rect width="36" height="36" fill="white"/>
</clipPath>
</defs>
</svg>
